{
  "accessors": [
    {
      "bufferView": 2,
      "componentType": 5126,
      "count": 21310,
      "max": [
        4.7337617874145508,
        2.7504029273986816,
        12.033770561218262
      ],
      "min": [
        -4.7337617874145508,
        -0.88451600074768066,
        2.5662291049957275
      ],
      "type": "VEC3"
    },
    {
      "bufferView": 2,
      "byteOffset": 255720,
      "componentType": 5126,
      "count": 21310,
      "max": [
        1,
        1,
        1
      ],
      "min": [
        -1,
        -1,
        -1
      ],
      "type": "VEC3"
    },
    {
      "bufferView": 3,
      "componentType": 5126,
      "count": 21310,
      "max": [
        1,
        1,
        0.99454635381698608,
        1
      ],
      "min": [
        -0.99971616268157959,
        -1,
        -0.97756868600845337,
        -1
      ],
      "type": "VEC4"
    },
    {
      "bufferView": 1,
      "componentType": 5126,
      "count": 21310,
      "max": [
        0.95440000295639038,
        0.9714999794960022
      ],
      "min": [
        -0.81800001859664917,
        0.0019000000320374966
      ],
      "type": "VEC2"
    },
    {
      "bufferView": 0,
      "componentType": 5125,
      "count": 122640,
      "max": [
        21309
      ],
      "min": [
        0
      ],
      "type": "SCALAR"
    },
    {
      "bufferView": 2,
      "byteOffset": 511440,
      "componentType": 5126,
      "count": 3400,
      "max": [
        7.1838879585266113,
        2.8461799621582031,
        14.483901977539062
      ],
      "min": [
        -7.1838879585266113,
        -0.93569999933242798,
        0.11609800159931183
      ],
      "type": "VEC3"
    },
    {
      "bufferView": 2,
      "byteOffset": 552240,
      "componentType": 5126,
      "count": 3400,
      "max": [
        1,
        0.99989223480224609,
        1
      ],
      "min": [
        -1,
        -0.99989223480224609,
        -1
      ],
      "type": "VEC3"
    },
    {
      "bufferView": 3,
      "byteOffset": 340960,
      "componentType": 5126,
      "count": 3400,
      "max": [
        0.96447277069091797,
        0.99998849630355835,
        0.89740896224975586,
        1
      ],
      "min": [
        -0.97234314680099487,
        -0.99999922513961792,
        -0.88658559322357178,
        1
      ],
      "type": "VEC4"
    },
    {
      "bufferView": 0,
      "byteOffset": 490560,
      "componentType": 5125,
      "count": 19200,
      "max": [
        3399
      ],
      "min": [
        0
      ],
      "type": "SCALAR"
    },
    {
      "bufferView": 2,
      "byteOffset": 593040,
      "componentType": 5126,
      "count": 65532,
      "max": [
        7.1717262268066406,
        2.7727720737457275,
        14.575113296508789
      ],
      "min": [
        -0.57599598169326782,
        -0.86759597063064575,
        8.5268726348876953
      ],
      "type": "VEC3"
    },
    {
      "bufferView": 2,
      "byteOffset": 1379424,
      "componentType": 5126,
      "count": 65532,
      "max": [
        1,
        1,
        0.99999463558197021
      ],
      "min": [
        -1,
        -1,
        -0.99999463558197021
      ],
      "type": "VEC3"
    },
    {
      "bufferView": 3,
      "byteOffset": 395360,
      "componentType": 5126,
      "count": 65532,
      "max": [
        1,
        0.99987202882766724,
        1,
        1
      ],
      "min": [
        -0.99999982118606567,
        -0.99406009912490845,
        -1,
        -1
      ],
      "type": "VEC4"
    },
    {
      "bufferView": 1,
      "byteOffset": 170480,
      "componentType": 5126,
      "count": 65532,
      "max": [
        0.93120002746582031,
        0.99970000982284546
      ],
      "min": [
        0.00030000001424923539,
        0.00060000002849847078
      ],
      "type": "VEC2"
    },
    {
      "bufferView": 0,
      "byteOffset": 567360,
      "componentType": 5125,
      "count": 358950,
      "max": [
        65531
      ],
      "min": [
        0
      ],
      "type": "SCALAR"
    },
    {
      "bufferView": 2,
      "byteOffset": 2165808,
      "componentType": 5126,
      "count": 65532,
      "max": [
        7.2835760116577148,
        2.7727720737457275,
        9.7980642318725586
      ],
      "min": [
        2.7213630676269531,
        -0.86759597063064575,
        0.56284397840499878
      ],
      "type": "VEC3"
    },
    {
      "bufferView": 2,
      "byteOffset": 2952192,
      "componentType": 5126,
      "count": 65532,
      "max": [
        0.99999642372131348,
        1,
        0.99999988079071045
      ],
      "min": [
        -0.99999642372131348,
        -1,
        -0.99999988079071045
      ],
      "type": "VEC3"
    },
    {
      "bufferView": 3,
      "byteOffset": 1443872,
      "componentType": 5126,
      "count": 65532,
      "max": [
        0.99999988079071045,
        0.99987196922302246,
        1,
        1
      ],
      "min": [
        -0.99999839067459106,
        -0.99404942989349365,
        -0.99999982118606567,
        -1
      ],
      "type": "VEC4"
    },
    {
      "bufferView": 1,
      "byteOffset": 694736,
      "componentType": 5126,
      "count": 65532,
      "max": [
        0.93120002746582031,
        0.99970000982284546
      ],
      "min": [
        0.00030000001424923539,
        0.00060000002849847078
      ],
      "type": "VEC2"
    },
    {
      "bufferView": 0,
      "byteOffset": 2003160,
      "componentType": 5125,
      "count": 358758,
      "max": [
        65531
      ],
      "min": [
        0
      ],
      "type": "SCALAR"
    },
    {
      "bufferView": 2,
      "byteOffset": 3738576,
      "componentType": 5126,
      "count": 65532,
      "max": [
        3.8654000759124756,
        2.7727720737457275,
        3.4287059307098389
      ],
      "min": [
        -5.6832060813903809,
        -0.86759597063064575,
        0.016318999230861664
      ],
      "type": "VEC3"
    },
    {
      "bufferView": 2,
      "byteOffset": 4524960,
      "componentType": 5126,
      "count": 65532,
      "max": [
        0.9999992847442627,
        1,
        0.99999785423278809
      ],
      "min": [
        -0.9999992847442627,
        -1,
        -0.99999785423278809
      ],
      "type": "VEC3"
    },
    {
      "bufferView": 3,
      "byteOffset": 2492384,
      "componentType": 5126,
      "count": 65532,
      "max": [
        0.99999910593032837,
        0.99987196922302246,
        0.9999992847442627,
        1
      ],
      "min": [
        -0.99999970197677612,
        -0.99404901266098022,
        -1,
        -1
      ],
      "type": "VEC4"
    },
    {
      "bufferView": 1,
      "byteOffset": 1218992,
      "componentType": 5126,
      "count": 65532,
      "max": [
        0.93120002746582031,
        0.99970000982284546
      ],
      "min": [
        0.00030000001424923539,
        0.00060000002849847078
      ],
      "type": "VEC2"
    },
    {
      "bufferView": 0,
      "byteOffset": 3438192,
      "componentType": 5125,
      "count": 359067,
      "max": [
        65531
      ],
      "min": [
        0
      ],
      "type": "SCALAR"
    },
    {
      "bufferView": 2,
      "byteOffset": 5311344,
      "componentType": 5126,
      "count": 65532,
      "max": [
        -4.3286600112915039,
        2.7727720737457275,
        11.883071899414062
      ],
      "min": [
        -7.2837791442871094,
        -0.86759597063064575,
        1.8983019590377808
      ],
      "type": "VEC3"
    },
    {
      "bufferView": 2,
      "byteOffset": 6097728,
      "componentType": 5126,
      "count": 65532,
      "max": [
        0.99999892711639404,
        1,
        0.99999845027923584
      ],
      "min": [
        -0.99999892711639404,
        -1,
        -0.99999845027923584
      ],
      "type": "VEC3"
    },
    {
      "bufferView": 3,
      "byteOffset": 3540896,
      "componentType": 5126,
      "count": 65532,
      "max": [
        0.99999988079071045,
        0.99987202882766724,
        0.99999964237213135,
        1
      ],
      "min": [
        -1,
        -0.99404913187026978,
        -1,
        -1
      ],
      "type": "VEC4"
    },
    {
      "bufferView": 1,
      "byteOffset": 1743248,
      "componentType": 5126,
      "count": 65532,
      "max": [
        0.93120002746582031,
        0.99970000982284546
      ],
      "min": [
        0.00030000001424923539,
        0.00060000002849847078
      ],
      "type": "VEC2"
    },
    {
      "bufferView": 0,
      "byteOffset": 4874460,
      "componentType": 5125,
      "count": 358533,
      "max": [
        65531
      ],
      "min": [
        0
      ],
      "type": "SCALAR"
    },
    {
      "bufferView": 2,
      "byteOffset": 6884112,
      "componentType": 5126,
      "count": 47462,
      "max": [
        0.27631598711013794,
        2.7727720737457275,
        14.583876609802246
      ],
      "min": [
        -6.271820068359375,
        -0.86759597063064575,
        10.598136901855469
      ],
      "type": "VEC3"
    },
    {
      "bufferView": 2,
      "byteOffset": 7453656,
      "componentType": 5126,
      "count": 47462,
      "max": [
        0.9999382495880127,
        1,
        0.9999319314956665
      ],
      "min": [
        -0.99989855289459229,
        -1,
        -0.9999384880065918
      ],
      "type": "VEC3"
    },
    {
      "bufferView": 3,
      "byteOffset": 4589408,
      "componentType": 5126,
      "count": 47462,
      "max": [
        0.99999988079071045,
        0.99987196922302246,
        0.99999874830245972,
        1
      ],
      "min": [
        -0.9999997615814209,
        -0.99404942989349365,
        -0.99999946355819702,
        -1
      ],
      "type": "VEC4"
    },
    {
      "bufferView": 1,
      "byteOffset": 2267504,
      "componentType": 5126,
      "count": 47462,
      "max": [
        0.93120002746582031,
        0.99970000982284546
      ],
      "min": [
        0.00030000001424923539,
        0.00060000002849847078
      ],
      "type": "VEC2"
    },
    {
      "bufferView": 0,
      "byteOffset": 6308592,
      "componentType": 5125,
      "count": 260169,
      "max": [
        47461
      ],
      "min": [
        0
      ],
      "type": "SCALAR"
    }
  ],
  "asset": {
    "extras": {
      "author": "deadly_cicada (https://sketchfab.com/deadly_cicada)",
      "license": "CC-BY-4.0 (http://creativecommons.org/licenses/by/4.0/)",
      "source": "https://sketchfab.com/models/236c023868b44f36ac7f89eee8074991",
      "title": "Model_a_Wheel_Attempt_2"
    },
    "generator": "Sketchfab-3.19.3",
    "version": "2.0"
  },
  "bufferViews": [
    {
      "buffer": 0,
      "byteLength": 7349268,
      "byteOffset": 0,
      "name": "floatBufferViews",
      "target": 34963
    },
    {
      "buffer": 0,
      "byteLength": 2647200,
      "byteOffset": 7349268,
      "byteStride": 8,
      "name": "floatBufferViews",
      "target": 34962
    },
    {
      "buffer": 0,
      "byteLength": 8023200,
      "byteOffset": 9996468,
      "byteStride": 12,
      "name": "floatBufferViews",
      "target": 34962
    },
    {
      "buffer": 0,
      "byteLength": 5348800,
      "byteOffset": 18019668,
      "byteStride": 16,
      "name": "floatBufferViews",
      "target": 34962
    }
  ],
  "buffers": [
    {
      "byteLength": 23368468,
      "uri": "scene.bin"
    }
  ],
  "images": [
    {
      "uri": "textures/Gloss_Black_metallicRoughness.png"
    },
    {
      "uri": "textures/Tread_Rubber_metallicRoughness.png"
    }
  ],
  "materials": [
    {
      "doubleSided": true,
      "emissiveFactor": [
        0,
        0,
        0
      ],
      "name": "Gloss_Black",
      "occlusionTexture": {
        "index": 0,
        "strength": 1,
        "texCoord": 0
      },
      "pbrMetallicRoughness": {
        "baseColorFactor": [
          0.12597560972800001,
          0.12597560972800001,
          0.12597560972800001,
          1
        ],
        "metallicFactor": 1,
        "roughnessFactor": 0.20903201220000001
      }
    },
    {
      "doubleSided": true,
      "emissiveFactor": [
        0,
        0,
        0
      ],
      "name": "Tire_Rubber",
      "pbrMetallicRoughness": {
        "baseColorFactor": [
          0.070400000000000004,
          0.070400000000000004,
          0.070400000000000004,
          1
        ],
        "metallicFactor": 0,
        "roughnessFactor": 0.84349154199999998
      }
    },
    {
      "doubleSided": true,
      "emissiveFactor": [
        0,
        0,
        0
      ],
      "name": "Tread_Rubber",
      "occlusionTexture": {
        "index": 1,
        "strength": 1,
        "texCoord": 0
      },
      "pbrMetallicRoughness": {
        "baseColorFactor": [
          0.070400000000000004,
          0.070400000000000004,
          0.070400000000000004,
          1
        ],
        "metallicFactor": 0,
        "roughnessFactor": 0.84349154199999998
      }
    }
  ],
  "meshes": [
    {
      "primitives": [
        {
          "attributes": {
            "NORMAL": 1,
            "POSITION": 0,
            "TANGENT": 2,
            "TEXCOORD_0": 3
          },
          "indices": 4,
          "material": 0,
          "mode": 4
        }
      ]
    },
    {
      "primitives": [
        {
          "attributes": {
            "NORMAL": 6,
            "POSITION": 5,
            "TANGENT": 7
          },
          "indices": 8,
          "material": 1,
          "mode": 4
        }
      ]
    },
    {
      "primitives": [
        {
          "attributes": {
            "NORMAL": 10,
            "POSITION": 9,
            "TANGENT": 11,
            "TEXCOORD_0": 12
          },
          "indices": 13,
          "material": 2,
          "mode": 4
        }
      ]
    },
    {
      "primitives": [
        {
          "attributes": {
            "NORMAL": 15,
            "POSITION": 14,
            "TANGENT": 16,
            "TEXCOORD_0": 17
          },
          "indices": 18,
          "material": 2,
          "mode": 4
        }
      ]
    },
    {
      "primitives": [
        {
          "attributes": {
            "NORMAL": 20,
            "POSITION": 19,
            "TANGENT": 21,
            "TEXCOORD_0": 22
          },
          "indices": 23,
          "material": 2,
          "mode": 4
        }
      ]
    },
    {
      "primitives": [
        {
          "attributes": {
            "NORMAL": 25,
            "POSITION": 24,
            "TANGENT": 26,
            "TEXCOORD_0": 27
          },
          "indices": 28,
          "material": 2,
          "mode": 4
        }
      ]
    },
    {
      "primitives": [
        {
          "attributes": {
            "NORMAL": 30,
            "POSITION": 29,
            "TANGENT": 31,
            "TEXCOORD_0": 32
          },
          "indices": 33,
          "material": 2,
          "mode": 4
        }
      ]
    }
  ],
  "nodes": [
    {
      "children": [
        1
      ],
      "name": "RootNode (gltf orientation matrix)",
      "rotation": [
        -0.70710678118654746,
        -0,
        -0,
        0.70710678118654757
      ]
    },
    {
      "children": [
        2
      ],
      "name": "RootNode (model correction matrix)"
    },
    {
      "children": [
        3,
        4,
        5,
        6,
        7,
        8,
        9
      ],
      "name": "Wheel.obj.cleaner.materialmerger.gles"
    },
    {
      "mesh": 0,
      "name": ""
    },
    {
      "mesh": 1,
      "name": ""
    },
    {
      "mesh": 2,
      "name": ""
    },
    {
      "mesh": 3,
      "name": ""
    },
    {
      "mesh": 4,
      "name": ""
    },
    {
      "mesh": 5,
      "name": ""
    },
    {
      "mesh": 6,
      "name": ""
    }
  ],
  "samplers": [
    {
      "magFilter": 9729,
      "minFilter": 9987,
      "wrapS": 10497,
      "wrapT": 10497
    }
  ],
  "scene": 0,
  "scenes": [
    {
      "name": "OSG_Scene",
      "nodes": [
        0
      ]
    }
  ],
  "textures": [
    {
      "sampler": 0,
      "source": 0
    },
    {
      "sampler": 0,
      "source": 1
    }
  ]
}

